<svg width="297" height="60" fill="none" xmlns="http://www.w3.org/2000/svg"><g clip-path="url(#clip0_157907_3358)"><path d="M4.957 0H0v35.799h4.957V22.518c0-2.247.559-4.02 1.676-5.268 1.118-1.248 2.649-1.897 4.544-1.897 1.628 0 2.989.6 4.082 1.747 1.093 1.174 1.652 2.647 1.652 4.42v14.304h4.981V21.519c0-3.295-.899-5.891-2.697-7.839-1.798-1.947-4.155-2.92-7.022-2.92-.826 0-1.652.1-2.454.324-.826.225-1.482.474-2.017.749-.534.275-1.044.574-1.506.924-.462.35-.778.599-.923.749-.146.15-.268.25-.316.324V0z" fill="#F0145A"/><path d="M32.973 0h-5.11v35.769h5.11V0zm30.138 25.293l.256-2.555c0-3.424-1.124-6.285-3.424-8.584-2.3-2.3-5.16-3.424-8.584-3.424-3.424 0-6.388 1.226-8.84 3.68-2.453 2.452-3.68 5.364-3.68 8.84 0 3.576 1.278 6.642 3.782 9.197 2.504 2.555 5.519 3.832 8.993 3.832 1.329 0 2.555-.204 3.782-.562 1.226-.409 2.248-.817 2.963-1.226.767-.46 1.533-.971 2.197-1.533.665-.562 1.125-.971 1.33-1.227.203-.255.357-.408.459-.562l-3.321-3.321-.767.97c-.51.614-1.38 1.227-2.606 1.891-1.277.665-2.606.971-4.037.971-1.992 0-3.679-.613-5.11-1.89-1.43-1.278-2.299-2.76-2.554-4.497h19.16zM51.36 15.073c1.89 0 3.423.562 4.7 1.636 1.227 1.124 1.994 2.503 2.3 4.24H44.154c.46-1.737 1.277-3.116 2.555-4.24 1.226-1.074 2.81-1.636 4.65-1.636zm35.583 19.213c0 2.249-.664 4.088-2.044 5.519-1.329 1.38-3.015 2.095-5.11 2.095-.92 0-1.84-.153-2.708-.409-.869-.255-1.533-.562-2.095-.92a11.553 11.553 0 01-1.584-1.175l-.92-.92c-.153-.153-.255-.306-.358-.408l-3.321 3.321.409.511c.255.358.715.818 1.328 1.328.613.46 1.329.971 2.146 1.482.818.46 1.84.87 3.117 1.227 1.278.357 2.606.562 3.986.562 3.475 0 6.336-1.175 8.738-3.526 2.35-2.402 3.526-5.263 3.526-8.738V11.241h-5.11v2.555l-.869-.767c-.562-.51-1.43-1.022-2.657-1.533a10.12 10.12 0 00-3.883-.766c-3.117 0-5.775 1.175-8.074 3.577-2.3 2.402-3.423 5.263-3.423 8.687 0 3.423 1.124 6.285 3.423 8.686 2.3 2.402 4.957 3.577 8.074 3.577.868 0 1.686-.102 2.554-.306a17.604 17.604 0 002.044-.767 7.629 7.629 0 001.533-.92c.46-.357.818-.613.92-.715l.358-.358v2.095zM73.146 22.994c0-2.146.665-3.935 2.044-5.417 1.38-1.482 3.015-2.248 4.855-2.248 1.84 0 3.474.766 4.854 2.248 1.329 1.482 2.044 3.27 2.044 5.417 0 2.146-.715 3.934-2.044 5.416-1.38 1.482-3.015 2.248-4.854 2.248-1.84 0-3.475-.766-4.855-2.248-1.38-1.482-2.044-3.27-2.044-5.416zm45.578 12.774v-15.84c0-2.606-.971-4.804-2.861-6.54-1.891-1.79-4.344-2.658-7.359-2.658-1.175 0-2.35.153-3.474.46-1.124.358-2.044.715-2.709 1.124-.664.409-1.328.869-1.941 1.43-.613.512-.971.87-1.175 1.074-.154.204-.307.357-.41.51l3.322 3.322.664-.868c.409-.563 1.125-1.073 2.198-1.636 1.073-.562 2.248-.817 3.525-.817 1.482 0 2.709.46 3.679 1.328.971.87 1.431 1.993 1.431 3.27l-8.942 1.534c-2.197.357-3.986 1.226-5.212 2.606-1.277 1.38-1.942 3.066-1.942 5.058 0 1.891.818 3.526 2.453 4.957 1.686 1.482 3.73 2.197 6.234 2.197.869 0 1.686-.102 2.504-.358.868-.204 1.533-.46 2.095-.715a7.628 7.628 0 001.533-.92c.46-.357.766-.613.971-.715.153-.153.255-.307.306-.358v2.555h5.11zm-11.753-4.088c-1.328 0-2.401-.306-3.168-.92-.817-.613-1.175-1.328-1.175-2.146 0-.868.256-1.635.818-2.197.562-.562 1.328-.97 2.248-1.124l7.92-1.277v.51c0 2.3-.562 4.037-1.737 5.315-1.175 1.226-2.811 1.84-4.906 1.84zM130 0h-5.11v35.769H130V0zM0 53.118h1.6v5.607h3.464v1.303H0v-6.91zm15.502 5.43h-3.209l-.612 1.48h-1.638l3.08-6.91h1.579l3.09 6.91h-1.678l-.612-1.48zm-.504-1.215l-1.095-2.645-1.096 2.645h2.191zm18.514-4.215l-2.26 6.91h-1.718l-1.52-4.679-1.57 4.68h-1.707l-2.27-6.91h1.658l1.56 4.856 1.628-4.857h1.48l1.58 4.897 1.61-4.897h1.53zm17.011 7.029a4.033 4.033 0 01-1.915-.454 3.518 3.518 0 01-1.342-1.274 3.562 3.562 0 01-.484-1.846c0-.684.161-1.296.484-1.836.329-.546.776-.97 1.342-1.273.573-.31 1.214-.464 1.925-.464.599 0 1.139.105 1.619.316.487.21.895.513 1.224.908l-1.027.948c-.467-.54-1.046-.81-1.737-.81-.428 0-.81.096-1.145.286a2 2 0 00-.79.78 2.34 2.34 0 00-.276 1.145c0 .428.092.81.276 1.145.191.336.454.6.79.79a2.34 2.34 0 001.145.277c.691 0 1.27-.273 1.737-.82l1.027.948a3.2 3.2 0 01-1.224.918c-.487.21-1.03.316-1.629.316zm12.07 0a4.064 4.064 0 01-1.944-.464 3.5 3.5 0 01-1.353-1.273 3.543 3.543 0 01-.483-1.837c0-.677.16-1.286.483-1.826a3.48 3.48 0 011.353-1.283c.579-.31 1.227-.464 1.944-.464.718 0 1.362.155 1.935.464a3.476 3.476 0 011.846 3.11c0 .677-.164 1.29-.494 1.836a3.5 3.5 0 01-1.352 1.273c-.573.31-1.217.464-1.935.464zm0-1.362c.408 0 .777-.093 1.106-.277a2.02 2.02 0 00.77-.79c.19-.335.286-.717.286-1.145 0-.427-.095-.809-.286-1.145a1.951 1.951 0 00-.77-.78 2.164 2.164 0 00-1.106-.286c-.408 0-.776.096-1.105.286a2.019 2.019 0 00-.78.78 2.34 2.34 0 00-.276 1.145c0 .428.092.81.276 1.145.19.336.45.6.78.79.329.184.697.277 1.105.277zM78.8 60.028l-.01-4.146-2.034 3.416h-.72l-2.024-3.327v4.057h-1.5v-6.91h1.322l2.587 4.294 2.546-4.294h1.313l.02 6.91h-1.5zm11.066-6.91c.612 0 1.142.102 1.59.306.453.205.802.494 1.046.87.243.374.365.819.365 1.332 0 .507-.122.95-.365 1.332-.244.376-.593.665-1.047.87-.447.197-.977.295-1.59.295h-1.39v1.905h-1.6v-6.91h2.99zm-.089 3.702c.48 0 .846-.102 1.096-.306.25-.21.375-.507.375-.888 0-.389-.125-.685-.375-.889-.25-.21-.616-.316-1.096-.316h-1.303v2.4h1.303zm13.371 1.728H99.94l-.612 1.48h-1.64l3.081-6.91h1.579l3.09 6.91h-1.678l-.612-1.48zm-.504-1.215l-1.095-2.645-1.096 2.645h2.191zm14.784-4.215v6.91h-1.313l-3.445-4.195v4.195h-1.58v-6.91h1.323l3.435 4.196v-4.196h1.58zm9.887 4.462v2.448h-1.599V57.56l-2.675-4.442h1.698l1.846 3.07 1.845-3.07H130l-2.685 4.462z" fill="#323264"/><path fill-rule="evenodd" clip-rule="evenodd" d="M149.175 0H155l-15.175 47H134l15.175-47z" fill="#F0145A"/><path d="M170.412 35.18c-1.872 0-3.552-.408-5.04-1.224a8.929 8.929 0 01-3.456-3.42c-.84-1.488-1.26-3.156-1.26-5.004 0-1.848.42-3.504 1.26-4.968a8.929 8.929 0 013.456-3.42c1.488-.816 3.168-1.224 5.04-1.224 1.632 0 3.084.324 4.356.972a7.123 7.123 0 013.06 2.772l-1.908 1.296c-.624-.936-1.416-1.632-2.376-2.088a6.905 6.905 0 00-3.132-.72c-1.368 0-2.604.312-3.708.936-1.08.6-1.932 1.464-2.556 2.592-.6 1.128-.9 2.412-.9 3.852 0 1.464.3 2.76.9 3.888a6.8 6.8 0 002.556 2.592c1.104.6 2.34.9 3.708.9 1.128 0 2.172-.228 3.132-.684.96-.456 1.752-1.152 2.376-2.088l1.908 1.296a7.358 7.358 0 01-3.06 2.808c-1.296.624-2.748.936-4.356.936zm19.861 0c-1.824 0-3.468-.408-4.932-1.224a9.189 9.189 0 01-3.456-3.456c-.84-1.464-1.26-3.12-1.26-4.968 0-1.848.42-3.504 1.26-4.968a8.929 8.929 0 013.456-3.42c1.464-.816 3.108-1.224 4.932-1.224 1.824 0 3.468.408 4.932 1.224a8.68 8.68 0 013.42 3.42c.84 1.464 1.26 3.12 1.26 4.968 0 1.848-.42 3.504-1.26 4.968a8.929 8.929 0 01-3.42 3.456c-1.464.816-3.108 1.224-4.932 1.224zm0-2.268c1.344 0 2.544-.3 3.6-.9a6.486 6.486 0 002.52-2.628c.6-1.128.9-2.412.9-3.852s-.3-2.724-.9-3.852c-.6-1.128-1.44-1.992-2.52-2.592-1.056-.624-2.256-.936-3.6-.936-1.344 0-2.556.312-3.636.936-1.056.6-1.896 1.464-2.52 2.592-.6 1.128-.9 2.412-.9 3.852s.3 2.724.9 3.852c.624 1.128 1.464 2.004 2.52 2.628 1.08.6 2.292.9 3.636.9zm24.478-16.992c2.376 0 4.26.696 5.652 2.088 1.416 1.368 2.124 3.372 2.124 6.012V35h-2.556V24.272c0-1.968-.492-3.468-1.476-4.5s-2.388-1.548-4.212-1.548c-2.04 0-3.66.612-4.86 1.836-1.176 1.2-1.764 2.868-1.764 5.004V35h-2.556V16.064h2.448v3.492a7.016 7.016 0 012.88-2.664c1.248-.648 2.688-.972 4.32-.972zm24.687 17.928c-.48.432-1.08.768-1.8 1.008a7.367 7.367 0 01-2.196.324c-1.776 0-3.144-.48-4.104-1.44s-1.44-2.316-1.44-4.068V18.224h-3.384v-2.16h3.384v-4.14h2.556v4.14h5.76v2.16h-5.76v11.304c0 1.128.276 1.992.828 2.592.576.576 1.392.864 2.448.864.528 0 1.032-.084 1.512-.252a3.776 3.776 0 001.296-.72l.9 1.836zm11.277-17.928c2.472 0 4.368.624 5.688 1.872 1.32 1.224 1.98 3.048 1.98 5.472V35h-2.448v-2.952c-.576.984-1.428 1.752-2.556 2.304-1.104.552-2.424.828-3.96.828-2.112 0-3.792-.504-5.04-1.512-1.248-1.008-1.872-2.34-1.872-3.996 0-1.608.576-2.904 1.728-3.888 1.176-.984 3.036-1.476 5.58-1.476h6.012v-1.152c0-1.632-.456-2.868-1.368-3.708-.912-.864-2.244-1.296-3.996-1.296a9.89 9.89 0 00-3.456.612c-1.104.384-2.052.924-2.844 1.62l-1.152-1.908c.96-.816 2.112-1.44 3.456-1.872a13.131 13.131 0 014.248-.684zm-.9 17.244c1.44 0 2.676-.324 3.708-.972 1.032-.672 1.8-1.632 2.304-2.88v-3.096h-5.94c-3.24 0-4.86 1.128-4.86 3.384 0 1.104.42 1.98 1.26 2.628.84.624 2.016.936 3.528.936zm23.429 2.016c-1.872 0-3.552-.408-5.04-1.224a8.929 8.929 0 01-3.456-3.42c-.84-1.488-1.26-3.156-1.26-5.004 0-1.848.42-3.504 1.26-4.968a8.929 8.929 0 013.456-3.42c1.488-.816 3.168-1.224 5.04-1.224 1.632 0 3.084.324 4.356.972a7.123 7.123 0 013.06 2.772l-1.908 1.296c-.624-.936-1.416-1.632-2.376-2.088a6.905 6.905 0 00-3.132-.72c-1.368 0-2.604.312-3.708.936-1.08.6-1.932 1.464-2.556 2.592-.6 1.128-.9 2.412-.9 3.852 0 1.464.3 2.76.9 3.888a6.8 6.8 0 002.556 2.592c1.104.6 2.34.9 3.708.9 1.128 0 2.172-.228 3.132-.684.96-.456 1.752-1.152 2.376-2.088l1.908 1.296a7.358 7.358 0 01-3.06 2.808c-1.296.624-2.748.936-4.356.936zm22.62-1.332c-.48.432-1.08.768-1.8 1.008a7.367 7.367 0 01-2.196.324c-1.776 0-3.144-.48-4.104-1.44s-1.44-2.316-1.44-4.068V18.224h-3.384v-2.16h3.384v-4.14h2.556v4.14h5.76v2.16h-5.76v11.304c0 1.128.276 1.992.828 2.592.576.576 1.392.864 2.448.864.528 0 1.032-.084 1.512-.252a3.776 3.776 0 001.296-.72l.9 1.836z" fill="#323264"/></g><defs><clipPath id="clip0_157907_3358"><path fill="#fff" d="M0 0h297v60H0z"/></clipPath></defs></svg>